<svg width="1200" height="630" viewBox="0 0 1200 630" fill="none" xmlns="http://www.w3.org/2000/svg">
  <rect width="1200" height="630" rx="36" fill="#0F172A"/>
  <rect x="56" y="56" width="1088" height="518" rx="28" fill="url(#bg)"/>
  <circle cx="934" cy="194" r="170" fill="rgba(255,255,255,0.16)"/>
  <circle cx="270" cy="454" r="220" fill="rgba(255,255,255,0.12)"/>
  <rect x="125" y="152" width="250" height="18" rx="9" fill="#E2E8F0" fill-opacity="0.9"/>
  <rect x="125" y="188" width="420" height="24" rx="12" fill="white" fill-opacity="0.95"/>
  <rect x="125" y="230" width="360" height="24" rx="12" fill="white" fill-opacity="0.8"/>
  <rect x="125" y="310" width="220" height="60" rx="30" fill="#FFFFFF"/>
  <rect x="370" y="310" width="220" height="60" rx="30" fill="rgba(255,255,255,0.18)" stroke="rgba(255,255,255,0.45)"/>
  <path d="M812 318C812 292.595 832.595 272 858 272H956C981.405 272 1002 292.595 1002 318V414C1002 439.405 981.405 460 956 460H858C832.595 460 812 439.405 812 414V318Z" fill="white" fill-opacity="0.16"/>
  <path d="M882 375L920 413L970 336" stroke="white" stroke-width="24" stroke-linecap="round" stroke-linejoin="round"/>
  <defs>
    <linearGradient id="bg" x1="56" y1="56" x2="1144" y2="574" gradientUnits="userSpaceOnUse">
      <stop stop-color="#667EEA"/>
      <stop offset="1" stop-color="#764BA2"/>
    </linearGradient>
  </defs>
</svg>
